<?xml version="1.0" encoding="utf-8"?>
<!-- Generator: Adobe Illustrator 23.0.1, SVG Export Plug-In . SVG Version: 6.00 Build 0)  -->
<svg version="1.1" id="Layer_1" xmlns="http://www.w3.org/2000/svg" xmlns:xlink="http://www.w3.org/1999/xlink" x="0px" y="0px"
	 viewBox="0 0 24 24" style="enable-background:new 0 0 24 24;" xml:space="preserve">
<style type="text/css">
	.st0{fill:none;}
	.st1{fill-rule:evenodd;clip-rule:evenodd;fill:#FFFFFF;}
</style>
<title>icon/av-volume</title>
<desc>Created with Sketch.</desc>
<g id="Icon-Export">
	<g>
		<polygon id="Bounds" class="st0" points="0,0 24,0 24,24 0,24 		"/>
		<g>
			<path class="st1" d="M3,9v6h4l5,5V4L7,9H3L3,9z M16.5,12c0-1.8-1-3.3-2.5-4V16C15.5,15.3,16.5,13.8,16.5,12L16.5,12z M14,3.2v2.1
				c2.9,0.9,5,3.5,5,6.7s-2.1,5.8-5,6.7v2.1c4-0.9,7-4.5,7-8.8S18,4.1,14,3.2L14,3.2z"/>
		</g>
	</g>
</g>
</svg>
