<?xml version="1.0" encoding="utf-8"?>
<!-- Generator: Adobe Illustrator 23.0.1, SVG Export Plug-In . SVG Version: 6.00 Build 0)  -->
<svg version="1.1" id="Layer_1" xmlns="http://www.w3.org/2000/svg" xmlns:xlink="http://www.w3.org/1999/xlink" x="0px" y="0px"
	 viewBox="0 0 24 24" style="enable-background:new 0 0 24 24;" xml:space="preserve">
<style type="text/css">
	.st0{fill-rule:evenodd;clip-rule:evenodd;fill:#FFFFFF;}
	.st1{fill-rule:evenodd;clip-rule:evenodd;fill:#FFFFFF;stroke:#FFFFFF;stroke-width:0.75;stroke-miterlimit:10;}
</style>
<title>icon/checkmark-outline</title>
<desc>Created with Sketch.</desc>
<path class="st0" d="M12,2c5.5,0,10,4.5,10,10s-4.5,10-10,10S2,17.5,2,12S6.5,2,12,2z M12,20c4.4,0,8-3.6,8-8s-3.6-8-8-8s-8,3.6-8,8
	S7.6,20,12,20z"/>
<g id="Shape">
	<polygon class="st1" points="16.1,14.9 14.9,16.1 12,13.2 9.1,16.1 7.9,14.9 10.8,12 7.9,9.1 9.1,7.9 12,10.8 14.9,7.9 16.1,9.1 
		13.2,12 	"/>
</g>
</svg>
