<svg width="45" height="45" viewBox="0 0 45 45" fill="none" xmlns="http://www.w3.org/2000/svg">
<g clip-path="url(#clip0)">
<path d="M14.1749 22.8175C12.8296 22.6895 11.5266 22.0788 10.5473 20.999C8.46316 18.7009 8.63664 15.1479 10.9348 13.0637C13.233 10.9796 16.7859 11.153 18.8701 13.4512C19.8493 14.531 20.3302 15.8873 20.3265 17.2386" stroke="#343434" stroke-width="1.5" stroke-miterlimit="10" stroke-linecap="round" stroke-linejoin="round"/>
<path d="M20.8262 26.5154L22.7952 28.6865" stroke="#343434" stroke-width="1.5" stroke-miterlimit="10" stroke-linecap="round" stroke-linejoin="round"/>
<path d="M22.7034 23.4946L21.883 22.59C21.2486 21.8905 21.3014 20.8093 22.0009 20.1749C22.7003 19.5406 23.7816 19.5934 24.416 20.2928L25.2364 21.1975" stroke="#343434" stroke-width="1.5" stroke-miterlimit="10" stroke-linecap="round" stroke-linejoin="round"/>
<path d="M25.5627 21.5593L25.0705 21.0165C24.4361 20.317 24.4889 19.2358 25.1884 18.6014C25.8878 17.9671 26.9691 18.0199 27.6035 18.7193L28.4239 19.624" stroke="#343434" stroke-width="1.5" stroke-miterlimit="10" stroke-linecap="round" stroke-linejoin="round"/>
<path d="M28.2599 19.4432C27.6256 18.7437 27.6784 17.6625 28.3778 17.0281C29.0462 16.422 30.0965 16.5483 30.6023 17.2958L37.3855 27.3242L28.701 35.2002C27.4431 33.8132 23.1052 34.1201 21.5736 32.4313L19.2765 29.8983C18.7327 29.2987 18.778 28.372 19.3776 27.8283L20.825 26.5156L14.0976 19.0975C13.4633 18.398 13.516 17.3168 14.2155 16.6824C14.915 16.0481 15.9963 16.1009 16.6306 16.8004L22.3735 23.1329" stroke="#343434" stroke-width="1.5" stroke-miterlimit="10" stroke-linecap="round" stroke-linejoin="round"/>
</g>
<defs>
<clipPath id="clip0">
<rect width="31.2641" height="31.2641" fill="white" transform="translate(0 21.0027) rotate(-42.2046)"/>
</clipPath>
</defs>
</svg>
