
<svg xmlns="http://www.w3.org/2000/svg" version="1.1" xmlns:xlink="http://www.w3.org/1999/xlink" preserveAspectRatio="none" x="0px" y="0px" width="38px" height="38px" viewBox="0 0 38 38">
<defs/>

<g id="Layer_1">
<g transform="matrix( 0.7042236328125, 0, 0, 0.7042236328125, -2.7,-6.15) ">
<g>
<g>
<path fill="#FFFFFF" stroke="none" d="
M 10.95 8.7
L 3.85 8.7 3.85 15.8 10.95 15.8 10.95 8.7 Z"/>
</g>
</g>
</g>

<g transform="matrix( 0.7042236328125, 0, 0, 0.7042236328125, 5.55,-6.15) ">
<g>
<g>
<path fill="#FFFFFF" stroke="none" d="
M 3.85 8.7
L 3.85 15.8 10.95 15.8 10.95 8.7 3.85 8.7 Z"/>
</g>
</g>
</g>

<g transform="matrix( 0.7042236328125, 0, 0, 0.7042236328125, 13.8,-6.15) ">
<g>
<g>
<path fill="#FFFFFF" stroke="none" d="
M 3.85 8.7
L 3.85 15.8 10.95 15.8 10.95 8.7 3.85 8.7 Z"/>
</g>
</g>
</g>

<g transform="matrix( 0.7042236328125, 0, 0, 0.7042236328125, 22.05,-6.15) ">
<g>
<g>
<path fill="#FFFFFF" stroke="none" d="
M 3.85 8.7
L 3.85 15.8 10.95 15.8 10.95 8.7 3.85 8.7 Z"/>
</g>
</g>
</g>

<g transform="matrix( 0.7042236328125, 0, 0, 0.7042236328125, 30.3,-6.15) ">
<g>
<g>
<path fill="#FFFFFF" stroke="none" d="
M 3.85 8.7
L 3.85 15.8 10.95 15.8 10.95 8.7 3.85 8.7 Z"/>
</g>
</g>
</g>

<g transform="matrix( 0.7042236328125, 0, 0, 0.7042236328125, -2.7,26.85) ">
<g>
<g>
<path fill="#FFFFFF" stroke="none" d="
M 3.85 8.7
L 3.85 15.8 10.95 15.8 10.95 8.7 3.85 8.7 Z"/>
</g>
</g>
</g>

<g transform="matrix( 0.7042236328125, 0, 0, 0.7042236328125, 5.55,26.85) ">
<g>
<g>
<path fill="#FFFFFF" stroke="none" d="
M 3.85 8.7
L 3.85 15.8 10.95 15.8 10.95 8.7 3.85 8.7 Z"/>
</g>
</g>
</g>

<g transform="matrix( 0.7042236328125, 0, 0, 0.7042236328125, 13.8,26.85) ">
<g>
<g>
<path fill="#FFFFFF" stroke="none" d="
M 3.85 8.7
L 3.85 15.8 10.95 15.8 10.95 8.7 3.85 8.7 Z"/>
</g>
</g>
</g>

<g transform="matrix( 0.7042236328125, 0, 0, 0.7042236328125, 22.05,26.85) ">
<g>
<g>
<path fill="#FFFFFF" stroke="none" d="
M 3.85 8.7
L 3.85 15.8 10.95 15.8 10.95 8.7 3.85 8.7 Z"/>
</g>
</g>
</g>

<g transform="matrix( 0.7042236328125, 0, 0, 0.7042236328125, 30.3,26.85) ">
<g>
<g>
<path fill="#FFFFFF" stroke="none" d="
M 3.85 8.7
L 3.85 15.8 10.95 15.8 10.95 8.7 3.85 8.7 Z"/>
</g>
</g>
</g>

<g transform="matrix( 0.7042236328125, 0, 0, 0.7042236328125, 30.3,18.6) ">
<g>
<g>
<path fill="#FFFFFF" stroke="none" d="
M 3.85 8.7
L 3.85 15.8 10.95 15.8 10.95 8.7 3.85 8.7 Z"/>
</g>
</g>
</g>

<g transform="matrix( 0.7042236328125, 0, 0, 0.7042236328125, 30.3,10.35) ">
<g>
<g>
<path fill="#FFFFFF" stroke="none" d="
M 3.85 8.7
L 3.85 15.8 10.95 15.8 10.95 8.7 3.85 8.7 Z"/>
</g>
</g>
</g>

<g transform="matrix( 0.7042236328125, 0, 0, 0.7042236328125, 30.3,2.1) ">
<g>
<g>
<path fill="#FFFFFF" stroke="none" d="
M 3.85 8.7
L 3.85 15.8 10.95 15.8 10.95 8.7 3.85 8.7 Z"/>
</g>
</g>
</g>

<g transform="matrix( 0.7042236328125, 0, 0, 0.7042236328125, -2.7,18.6) ">
<g>
<g>
<path fill="#FFFFFF" stroke="none" d="
M 3.85 8.7
L 3.85 15.8 10.95 15.8 10.95 8.7 3.85 8.7 Z"/>
</g>
</g>
</g>

<g transform="matrix( 0.7042236328125, 0, 0, 0.7042236328125, -2.7,10.35) ">
<g>
<g>
<path fill="#FFFFFF" stroke="none" d="
M 3.85 8.7
L 3.85 15.8 10.95 15.8 10.95 8.7 3.85 8.7 Z"/>
</g>
</g>
</g>

<g transform="matrix( 0.7042236328125, 0, 0, 0.7042236328125, -2.7,2.1) ">
<g>
<g>
<path fill="#FFFFFF" stroke="none" d="
M 3.85 8.7
L 3.85 15.8 10.95 15.8 10.95 8.7 3.85 8.7 Z"/>
</g>
</g>
</g>
</g>
</svg>
